<svg width="80" height="80" viewBox="0 0 80 80" fill="none" xmlns="http://www.w3.org/2000/svg">
  <circle cx="40" cy="40" r="40" fill="#E6F7F0"/>
  <path d="M40 12C24.536 12 12 24.536 12 40C12 55.464 24.536 68 40 68C55.464 68 68 55.464 68 40C68 24.536 55.464 12 40 12ZM40 64C26.767 64 16 53.233 16 40C16 26.767 26.767 16 40 16C53.233 16 64 26.767 64 40C64 53.233 53.233 64 40 64Z" fill="#34D399"/>
  <path d="M52 32C49.791 32 48 33.791 48 36C48 38.209 49.791 40 52 40C54.209 40 56 38.209 56 36C56 33.791 54.209 32 52 32Z" fill="#059669"/>
  <path d="M40 24C37.791 24 36 25.791 36 28C36 30.209 37.791 32 40 32C42.209 32 44 30.209 44 28C44 25.791 42.209 24 40 24Z" fill="#059669"/>
  <path d="M28 32C25.791 32 24 33.791 24 36C24 38.209 25.791 40 28 40C30.209 40 32 38.209 32 36C32 33.791 30.209 32 28 32Z" fill="#059669"/>
  <path d="M40 48C37.791 48 36 49.791 36 52C36 54.209 37.791 56 40 56C42.209 56 44 54.209 44 52C44 49.791 42.209 48 40 48Z" fill="#059669"/>
  <path d="M40 32V48" stroke="#059669" stroke-width="2" stroke-linecap="round"/>
  <path d="M32 36L48 52" stroke="#059669" stroke-width="2" stroke-linecap="round"/>
  <path d="M32 36H48" stroke="#059669" stroke-width="2" stroke-linecap="round"/>
  <path d="M48 36L32 52" stroke="#059669" stroke-width="2" stroke-linecap="round"/>
</svg>
